<svg id="Layer_1" data-name="Layer 1" xmlns="http://www.w3.org/2000/svg" viewBox="0 0 1200 800"><defs><style>.cls-1{fill:#d1d3d4;}.cls-2{fill:#939598;}.cls-3{fill:#231f20;}</style></defs><path class="cls-1" d="M43.59,45.79v350h65v-140h285v-210Zm285,145h-220v-80h220Z"/><path class="cls-2" d="M328.59,574.29l65-65V395.79h-350v357h350V639.29Zm-220-113.5h220v80h-220Zm220,227h-220v-80h220Z"/><circle class="cls-3" cx="363.59" cy="221.98" r="10"/><rect class="cls-3" x="73.59" y="216.98" width="290" height="10"/><circle class="cls-3" cx="73.59" cy="221.98" r="10"/><rect class="cls-3" x="-28.91" y="319.48" width="205" height="10" transform="translate(-250.89 398.08) rotate(-90)"/><circle class="cls-3" cx="73.59" cy="425.79" r="10"/><rect class="cls-3" x="68.59" y="420.79" width="290" height="10"/><circle class="cls-3" cx="363.59" cy="425.79" r="10"/><polygon class="cls-2" points="785 109.85 785 44.65 435 44.65 435 394.65 785 394.65 785 250.6 785 203.13 785 190.6 589.57 190.6 589.57 250.6 720 250.6 720 329.65 500 329.65 500 109.65 720 109.65 720 109.85 785 109.85"/><rect class="cls-1" x="825.12" y="46.13" width="340" height="320"/><rect class="cls-1" x="435" y="433.89" width="340" height="320"/><polygon class="cls-2" points="1101.41 403.89 1101.41 690.31 881.41 690.31 881.41 403.89 816.41 403.89 816.41 753.89 1166.41 753.89 1166.41 403.89 1101.41 403.89"/><circle class="cls-3" cx="1122.15" cy="312.58" r="10"/><rect class="cls-3" x="1002.15" y="186.78" width="240" height="10" transform="translate(1313.93 -930.37) rotate(90)"/><rect class="cls-3" x="872.15" y="307.58" width="250" height="10"/><circle class="cls-3" cx="870.32" cy="312.58" r="10"/><rect class="cls-3" x="749.73" y="185.88" width="240" height="10" transform="translate(1060.61 -678.85) rotate(90)"/><circle class="cls-3" cx="869.73" cy="71.78" r="10"/><circle class="cls-3" cx="1122.15" cy="70.88" r="10"/><rect class="cls-3" x="478.9" y="470.09" width="250" height="10"/><circle class="cls-3" cx="475.47" cy="475.09" r="10"/><circle class="cls-3" cx="728.9" cy="475.09" r="10"/><circle class="cls-3" cx="728.9" cy="589.12" r="10"/><circle class="cls-3" cx="475.47" cy="719.31" r="10"/><circle class="cls-3" cx="728.9" cy="719.31" r="10"/><rect class="cls-3" x="350.47" y="594.12" width="250" height="10" transform="translate(-123.65 1074.59) rotate(-90)"/><rect class="cls-3" x="673.9" y="525.99" width="110" height="10" transform="translate(197.91 1259.89) rotate(-90)"/><rect class="cls-3" x="527.49" y="584.12" width="200" height="10"/><rect class="cls-3" x="462.29" y="610.94" width="80" height="10" transform="translate(-288.42 535.58) rotate(-45)"/><rect class="cls-3" x="569.5" y="649.92" width="190" height="10" transform="translate(657.73 -278.05) rotate(45)"/></svg>